<svg width="16" height="19" viewBox="0 0 16 19" fill="none" xmlns="http://www.w3.org/2000/svg">
<path d="M11.55 4.58497L7 0.0349731V3.10497C3.06 3.59497 0 6.95497 0 11.035C0 15.115 3.05 18.475 7 18.965V16.945C4.16 16.465 2 14.005 2 11.035C2 8.06497 4.16 5.60497 7 5.12497V9.03497L11.55 4.58497ZM15.93 10.035C15.76 8.64497 15.21 7.30497 14.31 6.14497L12.89 7.56497C13.43 8.31497 13.77 9.16497 13.91 10.035H15.93ZM9 16.935V18.955C10.39 18.785 11.74 18.245 12.9 17.345L11.46 15.905C10.71 16.445 9.87 16.795 9 16.935ZM12.89 14.515L14.31 15.925C15.21 14.765 15.76 13.425 15.93 12.035H13.91C13.77 12.905 13.43 13.755 12.89 14.515Z" fill="white"/>
</svg>
